<svg width="134" height="117" viewBox="0 0 134 117" fill="none" xmlns="http://www.w3.org/2000/svg">
<circle cx="4" cy="4" r="4" fill="#038BFF"/>
<circle cx="22" cy="4" r="4" fill="#038BFF"/>
<circle cx="40" cy="4" r="4" fill="#038BFF"/>
<circle cx="4" cy="23" r="4" fill="#038BFF"/>
<circle cx="22" cy="23" r="4" fill="#038BFF"/>
<circle cx="40" cy="23" r="4" fill="#038BFF"/>
<circle cx="4" cy="41" r="4" fill="#038BFF"/>
<circle cx="22" cy="41" r="4" fill="#038BFF"/>
<circle cx="40" cy="41" r="4" fill="#038BFF"/>
<circle cx="4" cy="59" r="4" fill="#038BFF"/>
<circle cx="22" cy="59" r="4" fill="#038BFF"/>
<circle cx="40" cy="59" r="4" fill="#038BFF"/>
<circle cx="4" cy="77" r="4" fill="#038BFF"/>
<circle cx="22" cy="77" r="4" fill="#038BFF"/>
<circle cx="40" cy="77" r="4" fill="#038BFF"/>
<circle cx="58" cy="77" r="4" fill="#038BFF"/>
<circle cx="76" cy="77" r="4" fill="#038BFF"/>
<circle cx="94" cy="77" r="4" fill="#038BFF"/>
<circle cx="112" cy="77" r="4" fill="#038BFF"/>
<circle cx="130" cy="77" r="4" fill="#038BFF"/>
<circle cx="4" cy="95" r="4" fill="#038BFF"/>
<circle cx="22" cy="95" r="4" fill="#038BFF"/>
<circle cx="40" cy="95" r="4" fill="#038BFF"/>
<circle cx="58" cy="95" r="4" fill="#038BFF"/>
<circle cx="76" cy="95" r="4" fill="#038BFF"/>
<circle cx="94" cy="95" r="4" fill="#038BFF"/>
<circle cx="112" cy="95" r="4" fill="#038BFF"/>
<circle cx="130" cy="95" r="4" fill="#038BFF"/>
<circle cx="4" cy="113" r="4" fill="#038BFF"/>
<circle cx="22" cy="113" r="4" fill="#038BFF"/>
<circle cx="40" cy="113" r="4" fill="#038BFF"/>
<circle cx="58" cy="113" r="4" fill="#038BFF"/>
<circle cx="76" cy="113" r="4" fill="#038BFF"/>
<circle cx="94" cy="113" r="4" fill="#038BFF"/>
<circle cx="112" cy="113" r="4" fill="#038BFF"/>
<circle cx="130" cy="113" r="4" fill="#038BFF"/>
</svg>
