<svg width="118" height="63" viewBox="0 0 118 63" fill="none" xmlns="http://www.w3.org/2000/svg">
<circle cx="113.272" cy="4.5325" r="4" transform="rotate(90.27 113.272 4.5325)" fill="#D9D9D9"/>
<circle cx="113.187" cy="22.5323" r="4" transform="rotate(90.27 113.187 22.5323)" fill="#D9D9D9"/>
<circle cx="113.102" cy="40.5321" r="4" transform="rotate(90.27 113.102 40.5321)" fill="#D9D9D9"/>
<circle cx="113.017" cy="58.5319" r="4" transform="rotate(90.27 113.017 58.5319)" fill="#D9D9D9"/>
<circle cx="94.2722" cy="4.4429" r="4" transform="rotate(90.27 94.2722 4.4429)" fill="#D9D9D9"/>
<circle cx="94.1872" cy="22.4428" r="4" transform="rotate(90.27 94.1872 22.4428)" fill="#D9D9D9"/>
<circle cx="94.1023" cy="40.4425" r="4" transform="rotate(90.27 94.1023 40.4425)" fill="#D9D9D9"/>
<circle cx="94.0183" cy="58.4424" r="4" transform="rotate(90.27 94.0183 58.4424)" fill="#D9D9D9"/>
<circle cx="76.2722" cy="4.35818" r="4" transform="rotate(90.27 76.2722 4.35818)" fill="#D9D9D9"/>
<circle cx="76.1882" cy="22.3579" r="4" transform="rotate(90.27 76.1882 22.3579)" fill="#D9D9D9"/>
<circle cx="76.1033" cy="40.3577" r="4" transform="rotate(90.27 76.1033 40.3577)" fill="#D9D9D9"/>
<circle cx="76.0183" cy="58.3576" r="4" transform="rotate(90.27 76.0183 58.3576)" fill="#D9D9D9"/>
<circle cx="58.2732" cy="4.27334" r="4" transform="rotate(90.27 58.2732 4.27334)" fill="#D9D9D9"/>
<circle cx="58.1882" cy="22.2731" r="4" transform="rotate(90.27 58.1882 22.2731)" fill="#D9D9D9"/>
<circle cx="58.1033" cy="40.2729" r="4" transform="rotate(90.27 58.1033 40.2729)" fill="#D9D9D9"/>
<circle cx="58.0183" cy="58.2727" r="4" transform="rotate(90.27 58.0183 58.2727)" fill="#D9D9D9"/>
<circle cx="40.2732" cy="4.1885" r="4" transform="rotate(90.27 40.2732 4.1885)" fill="#D9D9D9"/>
<circle cx="40.1882" cy="22.1883" r="4" transform="rotate(90.27 40.1882 22.1883)" fill="#D9D9D9"/>
<circle cx="40.1033" cy="40.1881" r="4" transform="rotate(90.27 40.1033 40.1881)" fill="#D9D9D9"/>
<circle cx="40.0183" cy="58.1879" r="4" transform="rotate(90.27 40.0183 58.1879)" fill="#D9D9D9"/>
<circle cx="22.2732" cy="4.10366" r="4" transform="rotate(90.27 22.2732 4.10366)" fill="#D9D9D9"/>
<circle cx="22.1882" cy="22.1034" r="4" transform="rotate(90.27 22.1882 22.1034)" fill="#D9D9D9"/>
<circle cx="22.1033" cy="40.1033" r="4" transform="rotate(90.27 22.1033 40.1033)" fill="#D9D9D9"/>
<circle cx="22.0183" cy="58.1031" r="4" transform="rotate(90.27 22.0183 58.1031)" fill="#D9D9D9"/>
<circle cx="4.27319" cy="4.01882" r="4" transform="rotate(90.27 4.27319 4.01882)" fill="#D9D9D9"/>
<circle cx="4.18823" cy="22.0186" r="4" transform="rotate(90.27 4.18823 22.0186)" fill="#D9D9D9"/>
<circle cx="4.10424" cy="40.0185" r="4" transform="rotate(90.27 4.10424 40.0185)" fill="#D9D9D9"/>
<circle cx="4.01928" cy="58.0182" r="4" transform="rotate(90.27 4.01928 58.0182)" fill="#D9D9D9"/>
</svg>
