<svg width="62" height="117" viewBox="0 0 62 117" fill="none" xmlns="http://www.w3.org/2000/svg">
<circle cx="4" cy="4" r="4" fill="#D9D9D9"/>
<circle cx="22" cy="4" r="4" fill="#D9D9D9"/>
<circle cx="40" cy="4" r="4" fill="#D9D9D9"/>
<circle cx="58" cy="4" r="4" fill="#D9D9D9"/>
<circle cx="4" cy="23" r="4" fill="#D9D9D9"/>
<circle cx="22" cy="23" r="4" fill="#D9D9D9"/>
<circle cx="40" cy="23" r="4" fill="#D9D9D9"/>
<circle cx="58" cy="23" r="4" fill="#D9D9D9"/>
<circle cx="4" cy="41" r="4" fill="#D9D9D9"/>
<circle cx="22" cy="41" r="4" fill="#D9D9D9"/>
<circle cx="40" cy="41" r="4" fill="#D9D9D9"/>
<circle cx="58" cy="41" r="4" fill="#D9D9D9"/>
<circle cx="4" cy="59" r="4" fill="#D9D9D9"/>
<circle cx="22" cy="59" r="4" fill="#D9D9D9"/>
<circle cx="40" cy="59" r="4" fill="#D9D9D9"/>
<circle cx="58" cy="59" r="4" fill="#D9D9D9"/>
<circle cx="4" cy="77" r="4" fill="#D9D9D9"/>
<circle cx="22" cy="77" r="4" fill="#D9D9D9"/>
<circle cx="40" cy="77" r="4" fill="#D9D9D9"/>
<circle cx="58" cy="77" r="4" fill="#D9D9D9"/>
<circle cx="4" cy="95" r="4" fill="#D9D9D9"/>
<circle cx="22" cy="95" r="4" fill="#D9D9D9"/>
<circle cx="40" cy="95" r="4" fill="#D9D9D9"/>
<circle cx="58" cy="95" r="4" fill="#D9D9D9"/>
<circle cx="4" cy="113" r="4" fill="#D9D9D9"/>
<circle cx="22" cy="113" r="4" fill="#D9D9D9"/>
<circle cx="40" cy="113" r="4" fill="#D9D9D9"/>
<circle cx="58" cy="113" r="4" fill="#D9D9D9"/>
</svg>
