<svg width="1440" height="417" viewBox="0 0 1440 417" fill="none" xmlns="http://www.w3.org/2000/svg">
<path d="M174.5 373C42.2166 315.556 -15.6667 245.833 -27 219V610.5H85.5C531.5 613.167 1423.9 616.9 1425.5 610.5C1427.5 602.5 1414 504 1400 474C1378.65 428.258 1332.14 371.589 1295.5 336C1260.5 302 1178 253 1067.5 243.5C993.249 237.116 868 285.846 852.5 293C748.5 341 721.5 364.5 669 398C583.014 452.867 439 432 432.5 432C426 432 338 444 174.5 373Z" fill="#0A316C" stroke="#0A316C"/>
<path d="M21.2349 166C-32.8617 108.35 -60.1424 61.3842 -103.247 0L-111.994 82.5379C-113.258 94.471 -108.336 128.68 -79.0795 170.496C-49.8232 212.312 20.7812 282.345 82.2349 314.5C138.235 343.802 206.337 366.837 285.235 372.5C389.735 380 490.735 365 512.735 357.5C505.312 356.378 461.5 360.5 353 348.5C320.816 344.94 232.273 325 172.235 288C126.354 259.725 89.7349 239 21.2349 166Z" fill="white"/>
<path d="M663.512 330.626C467.347 424.669 272.726 412.85 161 371.738C166.492 376.192 261.193 414.186 313.916 433.919C379.819 458.586 444.693 457.045 480.219 461.156C515.744 465.267 635.194 453.961 673.809 435.975C714.218 417.153 786.565 373.794 868.43 316.237C950.294 258.681 1035.76 254.056 1093.43 256.626C1171.2 260.091 1237.59 292.769 1266.42 313.154C1271.06 317.779 1247.73 290.045 1198.46 266.903C1180.95 258.682 1110.93 218.083 1002.3 221.167C888.461 224.398 858.614 237.093 663.512 330.626Z" fill="#038BFF"/>
<path d="M1127.37 176C1061.26 176 1007.31 193.118 983 204C1009.5 198 1054.63 199.626 1127.37 210.733C1181.67 219.024 1256.82 253.807 1300 288.5C1354.82 332.546 1369.31 351.066 1412 401.5C1454.69 451.934 1469.21 431.466 1469.21 431.466C1469.21 431.466 1480.07 426.284 1483.69 424.729C1490.41 421.843 1501.6 410.919 1509.03 408.666C1516.45 406.413 1515.75 385.882 1509.03 375C1508.26 373.754 1496.03 353.155 1480 334.5C1474.83 329.318 1431.5 279 1362 241C1280 196.166 1220.46 176 1127.37 176Z" fill="white" stroke="white"/>
<path d="M746 396.999L706.356 419.171L749.5 419.171L773.5 398.5L796 378L819 355L833 341L816 352.499L796 365.499L772 380.999L746 396.999Z" fill="#0B4FA2" stroke="#0B4FA2"/>
<path d="M151 430.5L273 422L301 419.5L244.5 399.5L213 387.5L187.5 376.5L140.5 356L81.5 325.5L44 302.5L5.5 273L-18.5 250L-21 374.5L4.5 393L36 412.5L59.5 423L151 430.5Z" fill="#0B4FA2" stroke="#0B4FA2"/>
</svg>
